<?xml version="1.0" standalone="no"?>
<!DOCTYPE svg PUBLIC "-//W3C//DTD SVG 1.1//EN" "http://www.w3.org/Graphics/SVG/1.1/DTD/svg11.dtd" >
<!--
2013-9-30: Created.
-->
<svg>
<metadata>
Created by iconfont
</metadata>
<defs>

<font id="iconfont" horiz-adv-x="1024" >
  <font-face
    font-family="iconfont"
    font-weight="500"
    font-stretch="normal"
    units-per-em="1024"
    ascent="896"
    descent="-128"
  />
    <missing-glyph />
    
    <glyph glyph-name="ic_baocun" unicode="&#59085;" d="M827.733333-42.666667H192h-4.266667c-38.4 8.533333-85.333333 51.2-98.133333 85.333334 0 8.533333-4.266667 12.8-4.266667 21.333333v640 4.266667c8.533333 42.666667 55.466667 89.6 93.866667 102.4H759.466667c-42.666667 8.533333 145.066667-17.066667 179.2-179.2v-571.733334c-8.533333-42.666667-59.733333-85.333333-98.133334-98.133333-4.266667-4.266667-8.533333-4.266667-12.8-4.266667zM512 68.266667h277.333333c21.333333 0 34.133333 12.8 34.133334 34.133333v217.6c0 21.333333-12.8 34.133333-34.133334 34.133333H230.4c-21.333333 0-34.133333-12.8-34.133333-34.133333V85.333333c4.266667-17.066667 17.066667-25.6 34.133333-25.6 93.866667 8.533333 187.733333 8.533333 281.6 8.533334z m-17.066667 396.8h179.2c25.6 0 38.4 12.8 38.4 38.4V657.066667c0 25.6-12.8 38.4-38.4 38.4h-384c-25.6 0-38.4-12.8-38.4-34.133334v-157.866666c0-25.6 12.8-38.4 38.4-38.4h204.8zM541.866667 640h110.933333v-115.2h-110.933333V640z"  horiz-adv-x="1024" />

    
    <glyph glyph-name="ic_gongshi" unicode="&#59086;" d="M162.133333 422.4c8.533333-34.133333 21.333333-64 38.4-93.866667v-166.4h234.666667c21.333333-4.266667 46.933333-8.533333 68.266667-8.533333s46.933333 4.266667 68.266666 8.533333H853.333333v196.266667h-29.866666c12.8 21.333333 21.333333 46.933333 25.6 72.533333h12.8c38.4 0 64-29.866667 64-64v-354.133333c0-29.866667-25.6-55.466667-55.466667-55.466667H183.466667c-29.866667 0-55.466667 25.6-55.466667 55.466667v354.133333c0 25.6 12.8 46.933333 34.133333 55.466667zM507.733333 810.666667c162.133333 0 298.666667-132.266667 298.666667-298.666667s-132.266667-298.666667-298.666667-298.666667-298.666667 132.266667-298.666666 298.666667 136.533333 298.666667 298.666666 298.666667z m0-520.533334c123.733333 0 221.866667 98.133333 221.866667 221.866667s-98.133333 221.866667-221.866667 221.866667S285.866667 635.733333 285.866667 512s98.133333-221.866667 221.866666-221.866667z m42.666667 221.866667l68.266667-72.533333c8.533333-8.533333 8.533333-17.066667 0-25.6l-25.6-25.6c-8.533333-8.533333-17.066667-8.533333-25.6 0l-89.6 89.6c-4.266667 4.266667-8.533333 12.8-8.533334 17.066666V644.266667c0 8.533333 8.533333 17.066667 17.066667 17.066666h38.4c8.533333 0 17.066667-8.533333 17.066667-17.066666v-119.466667c4.266667-4.266667 4.266667-8.533333 8.533333-12.8z"  horiz-adv-x="1024" />

    
    <glyph glyph-name="ic_shangyiye" unicode="&#59087;" d="M640 541.866667v-320c0-8.533333-12.8-17.066667-25.6-8.533334l-226.133333 153.6c-8.533333 4.266667-8.533333 17.066667 0 21.333334l226.133333 157.866666c12.8 12.8 25.6 8.533333 25.6-4.266666z"  horiz-adv-x="1024" />

    
    <glyph glyph-name="ic_bianji" unicode="&#59088;" d="M605.866667 593.066667h145.066666c8.533333 0 21.333333 8.533333 21.333334 21.333333 0 4.266667 0 8.533333-4.266667 12.8l-179.2 179.2c-8.533333 4.266667-12.8 4.266667-17.066667 4.266667-8.533333 0-17.066667-8.533333-17.066666-21.333334v-145.066666c0-25.6 21.333333-51.2 51.2-51.2z m324.266666-187.733334l-17.066666 17.066667c-8.533333 8.533333-25.6 8.533333-38.4 0l-213.333334-213.333333v-46.933334c0-4.266667 0-8.533333 4.266667-8.533333H716.8l213.333333 209.066667c12.8 17.066667 12.8 34.133333 0 42.666666z m-170.666666-328.533333h-128c-29.866667 0-51.2 21.333333-51.2 51.2v93.866667c0 12.8 4.266667 29.866667 17.066666 38.4l170.666667 170.666666c4.266667 4.266667 8.533333 12.8 8.533333 21.333334v29.866666c0 12.8-12.8 25.6-25.6 25.6H554.666667c-46.933333 4.266667-85.333333 38.4-85.333334 85.333334V785.066667c0 12.8-12.8 25.6-25.6 25.6H166.4C123.733333 810.666667 85.333333 772.266667 85.333333 729.6v-652.8c0-42.666667 38.4-81.066667 81.066667-81.066667h520.533333c38.4 0 72.533333 29.866667 81.066667 64 4.266667 8.533333 0 17.066667-8.533333 17.066667zM196.266667 567.466667c0 12.8 12.8 25.6 25.6 25.6h110.933333c17.066667 0 25.6-12.8 25.6-25.6v-25.6c0-17.066667-12.8-29.866667-25.6-29.866667H221.866667c-17.066667 0-25.6 12.8-25.6 25.6v29.866667zM469.333333 213.333333c0-12.8-12.8-25.6-25.6-25.6H221.866667c-17.066667 0-25.6 12.8-25.6 25.6v25.6c0 12.8 12.8 25.6 25.6 25.6h221.866666c17.066667 0 25.6-12.8 25.6-25.6v-25.6z m55.466667 162.133334c0-12.8-12.8-25.6-25.6-25.6H221.866667c-17.066667 0-25.6 12.8-25.6 25.6v25.6c0 12.8 12.8 25.6 25.6 25.6h277.333333c17.066667 0 25.6-12.8 25.6-25.6v-25.6z"  horiz-adv-x="1024" />

    
    <glyph glyph-name="ic_renyuan" unicode="&#59089;" d="M725.333333 418.133333c-119.466667 0-213.333333-98.133333-213.333333-217.6s93.866667-213.333333 213.333333-213.333333 213.333333 98.133333 213.333334 213.333333-93.866667 217.6-213.333334 217.6z m149.333334-234.666666h-157.866667v166.4s59.733333 4.266667 110.933333-51.2 46.933333-115.2 46.933334-115.2z m-430.933334 17.066666c0 46.933333 17.066667 106.666667 42.666667 149.333334 29.866667 51.2 64 72.533333 89.6 115.2 42.666667 64 51.2 162.133333 25.6 234.666666C571.733333 768 503.466667 810.666667 426.666667 810.666667 345.6 810.666667 281.6 759.466667 256 686.933333c-29.866667-81.066667-17.066667-179.2 46.933333-238.933333 29.866667-25.6 51.2-64 38.4-102.4-12.8-34.133333-55.466667-51.2-85.333333-64-68.266667-29.866667-153.6-72.533333-170.666667-157.866667-12.8-68.266667 29.866667-136.533333 106.666667-136.533333h302.933333c12.8 0 21.333333 17.066667 12.8 29.866667-38.4 51.2-64 115.2-64 183.466666z"  horiz-adv-x="1024" />

    
    <glyph glyph-name="ic_quxiao" unicode="&#59090;" d="M512 810.666667C277.333333 810.666667 85.333333 618.666667 85.333333 384s192-426.666667 426.666667-426.666667 426.666667 192 426.666667 426.666667S746.666667 810.666667 512 810.666667z m85.333333-439.466667l136.533334-136.533333c8.533333-8.533333 8.533333-17.066667 0-25.6L682.666667 157.866667c-8.533333-8.533333-17.066667-8.533333-25.6 0L520.533333 298.666667c-8.533333 8.533333-17.066667 8.533333-25.6 0l-136.533333-140.8c-8.533333-8.533333-17.066667-8.533333-25.6 0l-51.2 51.2c-8.533333 8.533333-8.533333 17.066667 0 25.6l136.533333 136.533333c8.533333 8.533333 8.533333 17.066667 0 25.6L285.866667 533.333333c-8.533333 8.533333-8.533333 21.333333 0 25.6l51.2 51.2c8.533333 8.533333 17.066667 8.533333 25.6 0l140.8-140.8c8.533333-8.533333 17.066667-8.533333 25.6 0l136.533333 136.533334c8.533333 8.533333 17.066667 8.533333 25.6 0L742.4 554.666667c8.533333-8.533333 8.533333-17.066667 0-25.6L597.333333 392.533333c-4.266667-4.266667-4.266667-17.066667 0-21.333333z"  horiz-adv-x="1024" />

    
    <glyph glyph-name="ic_weihu" unicode="&#59091;" d="M601.6 443.733333l328.533333-328.533333c17.066667-17.066667 17.066667-42.666667 0-59.733333l-89.6-89.6c-17.066667-17.066667-42.666667-17.066667-59.733333 0l-328.533333 328.533333c-29.866667-12.8-64-17.066667-98.133334-17.066667-149.333333 0-268.8 119.466667-268.8 264.533334 0 34.133333 8.533333 55.466667 8.533334 55.466666 4.266667 21.333333 25.6 29.866667 42.666666 12.8l102.4-102.4c21.333333-21.333333 55.466667-21.333333 76.8 0l76.8 76.8c21.333333 21.333333 21.333333 55.466667 0 76.8L285.866667 763.733333c-17.066667 17.066667-12.8 34.133333 12.8 38.4 0 0 21.333333 8.533333 55.466666 8.533334 149.333333 0 268.8-119.466667 268.8-268.8-4.266667-34.133333-8.533333-68.266667-21.333333-98.133334z"  horiz-adv-x="1024" />

    
    <glyph glyph-name="ic_wenjianjia" unicode="&#59092;" d="M866.133333 588.8h-405.333333c-25.6 0-46.933333 12.8-64 34.133333L341.333333 733.866667c-12.8 21.333333-38.4 34.133333-64 34.133333H157.866667C119.466667 768 85.333333 733.866667 85.333333 695.466667v-640c0-38.4 34.133333-72.533333 72.533334-72.533334h712.533333c38.4 0 72.533333 34.133333 72.533333 72.533334V520.533333c-4.266667 38.4-38.4 68.266667-76.8 68.266667z m0 145.066667h-426.666666c-8.533333 0-8.533333-8.533333-8.533334-12.8l29.866667-46.933334c4.266667-8.533333 8.533333-8.533333 17.066667-8.533333h392.533333c21.333333 0 38.4-4.266667 55.466667-8.533333 8.533333-4.266667 17.066667 0 17.066666 8.533333-4.266667 34.133333-38.4 68.266667-76.8 68.266667z"  horiz-adv-x="1024" />

    
    <glyph glyph-name="ic_xiayiye" unicode="&#59093;" d="M384 541.866667c0 12.8 12.8 17.066667 25.6 8.533333l226.133333-157.866667c8.533333-4.266667 8.533333-17.066667 0-21.333333l-226.133333-153.6c-8.533333-8.533333-25.6 0-25.6 8.533333V541.866667z"  horiz-adv-x="1024" />

    
    <glyph glyph-name="ic_wenjiandakai" unicode="&#59094;" d="M832 571.733333c0 38.4-29.866667 72.533333-72.533333 72.533334h-260.266667c-29.866667 0-64 34.133333-64 34.133333l-42.666667 51.2s-21.333333 34.133333-64 34.133333H264.533333c-42.666667 4.266667-72.533333-25.6-72.533333-68.266666v-157.866667h640v34.133333z m51.2-106.666666H140.8c-34.133333 0-64-34.133333-51.2-68.266667l102.4-371.2c8.533333-21.333333 29.866667-38.4 51.2-38.4h541.866667c25.6 0 46.933333 17.066667 51.2 38.4l102.4 371.2c4.266667 34.133333-21.333333 68.266667-55.466667 68.266667z"  horiz-adv-x="1024" />

    
    <glyph glyph-name="ic_xinzeng" unicode="&#59095;" d="M588.8 324.266667h320c17.066667 0 29.866667 12.8 29.866667 29.866666v59.733334c0 17.066667-12.8 29.866667-29.866667 29.866666h-320c-12.8 0-21.333333 8.533333-21.333333 21.333334V780.8c4.266667 17.066667-12.8 29.866667-25.6 29.866667h-59.733334c-17.066667 0-29.866667-12.8-29.866666-29.866667v-320c0-12.8-8.533333-21.333333-21.333334-21.333333H115.2c-17.066667 4.266667-29.866667-12.8-29.866667-25.6v-59.733334c0-17.066667 12.8-29.866667 29.866667-29.866666h320c12.8 0 21.333333-8.533333 21.333333-21.333334v-320c0-17.066667 12.8-29.866667 29.866667-29.866666h59.733333c17.066667 0 29.866667 12.8 29.866667 29.866666v320c-4.266667 17.066667 0 21.333333 12.8 21.333334z"  horiz-adv-x="1024" />

    
    <glyph glyph-name="ic_shijian" unicode="&#59096;" d="M883.2 490.666667H153.6c-12.8 0-25.6-12.8-25.6-25.6v-435.2c0-42.666667 34.133333-72.533333 72.533333-72.533334h640c38.4 0 72.533333 34.133333 72.533334 72.533334V465.066667c-4.266667 12.8-17.066667 25.6-29.866667 25.6zM392.533333 98.133333c0-8.533333-8.533333-17.066667-17.066666-17.066666H307.2c-8.533333 0-17.066667 8.533333-17.066667 17.066666V170.666667c0 8.533333 8.533333 17.066667 17.066667 17.066666h72.533333c8.533333 0 17.066667-8.533333 17.066667-17.066666v-72.533334z m0 179.2c0-8.533333-8.533333-17.066667-17.066666-17.066666H307.2c-8.533333 0-17.066667 8.533333-17.066667 17.066666v72.533334c0 8.533333 8.533333 17.066667 17.066667 17.066666h72.533333c8.533333 0 17.066667-8.533333 17.066667-17.066666v-72.533334z m179.2-179.2c0-8.533333-8.533333-17.066667-17.066666-17.066666h-72.533334c-8.533333 0-17.066667 8.533333-17.066666 17.066666V170.666667c0 8.533333 8.533333 17.066667 17.066666 17.066666H554.666667c8.533333 0 17.066667-8.533333 17.066666-17.066666v-72.533334z m0 179.2c0-8.533333-8.533333-17.066667-17.066666-17.066666h-72.533334c-8.533333 0-17.066667 8.533333-17.066666 17.066666v72.533334c0 8.533333 8.533333 17.066667 17.066666 17.066666H554.666667c8.533333 0 17.066667-8.533333 17.066666-17.066666v-72.533334z m179.2-179.2c0-8.533333-8.533333-17.066667-17.066666-17.066666h-72.533334c-8.533333 0-17.066667 8.533333-17.066666 17.066666V170.666667c0 8.533333 8.533333 17.066667 17.066666 17.066666h72.533334c8.533333 0 17.066667-8.533333 17.066666-17.066666v-72.533334z m0 179.2c0-8.533333-8.533333-17.066667-17.066666-17.066666h-72.533334c-8.533333 0-17.066667 8.533333-17.066666 17.066666v72.533334c0 8.533333 8.533333 17.066667 17.066666 17.066666h72.533334c8.533333 0 17.066667-8.533333 17.066666-17.066666v-72.533334z m89.6 443.733334h-89.6v34.133333c0 29.866667-25.6 55.466667-55.466666 55.466667-29.866667 0-55.466667-21.333333-55.466667-51.2V725.333333H392.533333v29.866667C392.533333 785.066667 371.2 810.666667 341.333333 810.666667s-51.2-21.333333-51.2-55.466667v-34.133333H200.533333c-38.4 0-72.533333-29.866667-72.533333-72.533334v-42.666666c0-12.8 12.8-25.6 25.6-25.6h729.6c12.8 0 25.6 12.8 25.6 25.6v42.666666c0 42.666667-29.866667 72.533333-68.266667 72.533334z"  horiz-adv-x="1024" />

    
    <glyph glyph-name="ic_changchu" unicode="&#59097;" d="M900.266667 768H110.933333c-12.8 0-25.6-12.8-25.6-25.6v-89.6c0-12.8 12.8-25.6 25.6-25.6h789.333334c12.8 0 25.6 12.8 25.6 25.6V742.4c0 12.8-8.533333 25.6-25.6 25.6zM238.933333 558.933333H115.2c-12.8 0-25.6-12.8-25.6-25.6v-524.8c0-12.8 12.8-25.6 25.6-25.6h123.733333c12.8 0 25.6 12.8 25.6 25.6V529.066667c0 17.066667-12.8 29.866667-25.6 29.866666z m174.933334 0c4.266667 0 8.533333-12.8 8.533333-25.6v-524.8c0-12.8-4.266667-25.6-8.533333-25.6H341.333333c-4.266667 0-8.533333 12.8-8.533333 25.6V529.066667c0 12.8 4.266667 25.6 8.533333 25.6h72.533334z m524.8-85.333333v-29.866667c0-46.933333-102.4-81.066667-230.4-81.066666s-230.4 38.4-230.4 81.066666v29.866667c0 46.933333 102.4 81.066667 230.4 81.066667s230.4-34.133333 230.4-81.066667z m-460.8-93.866667c0-34.133333 102.4-64 230.4-64s230.4 29.866667 230.4 64v-59.733333c0-46.933333-102.4-81.066667-230.4-81.066667s-230.4 38.4-230.4 81.066667v59.733333z m0-123.733333c0-34.133333 102.4-64 230.4-64S938.666667 217.6 938.666667 256v-59.733333c0-46.933333-102.4-81.066667-230.4-81.066667s-230.4 34.133333-230.4 81.066667V256z m0-128c0-34.133333 102.4-64 230.4-64S938.666667 93.866667 938.666667 128v-59.733333c0-46.933333-102.4-81.066667-230.4-81.066667s-230.4 38.4-230.4 81.066667V128z"  horiz-adv-x="1024" />

    
    <glyph glyph-name="ic_zuofei" unicode="&#59098;" d="M849.066667 669.866667h-221.866667V738.133333c0 38.4-34.133333 72.533333-72.533333 72.533334h-106.666667c-38.4 0-72.533333-34.133333-72.533333-72.533334v-72.533333H153.6c-12.8 4.266667-25.6-8.533333-25.6-25.6v-51.2c0-12.8 12.8-25.6 25.6-25.6h691.2c12.8 0 25.6 12.8 25.6 25.6V640c4.266667 17.066667-8.533333 29.866667-21.333333 29.866667z m-401.066667 51.2c0 12.8 8.533333 17.066667 17.066667 17.066666h72.533333c8.533333 0 17.066667-8.533333 17.066667-17.066666v-51.2h-106.666667V721.066667z m328.533333-230.4H226.133333c-12.8 0-25.6-12.8-25.6-25.6v-418.133334c0-51.2 38.4-89.6 89.6-89.6h426.666667c51.2 0 89.6 38.4 89.6 89.6v418.133334c-4.266667 12.8-17.066667 25.6-29.866667 25.6z m-328.533333-392.533334c0-8.533333-8.533333-17.066667-17.066667-17.066666h-38.4c-8.533333 0-17.066667 8.533333-17.066666 17.066666v247.466667c0 8.533333 8.533333 17.066667 17.066666 17.066667h34.133334c8.533333 0 17.066667-8.533333 17.066666-17.066667v-247.466667z m179.2 0c0-8.533333-8.533333-17.066667-17.066667-17.066666h-34.133333c-8.533333 0-17.066667 8.533333-17.066667 17.066666v247.466667c0 8.533333 8.533333 17.066667 17.066667 17.066667h34.133333c8.533333 0 17.066667-8.533333 17.066667-17.066667v-247.466667z"  horiz-adv-x="1024" />

    
    <glyph glyph-name="ic_collect_reviews" unicode="&#59099;" d="M853.333333 384c0 46.933333 38.4 85.333333 85.333334 85.333333V640c0 46.933333-38.4 85.333333-85.333334 85.333333H170.666667c-46.933333 0-85.333333-38.4-85.333334-85.333333v-170.666667c46.933333 0 85.333333-38.4 85.333334-85.333333s-38.4-85.333333-85.333334-85.333333v-170.666667c0-46.933333 38.4-85.333333 85.333334-85.333333h682.666666c46.933333 0 85.333333 38.4 85.333334 85.333333v170.666667c-46.933333 0-85.333333 38.4-85.333334 85.333333z m-187.733333-204.8L512 277.333333l-153.6-98.133333 46.933333 174.933333L264.533333 469.333333l179.2 8.533334 68.266667 170.666666 64-166.4 179.2-8.533333-140.8-115.2 51.2-179.2z"  horiz-adv-x="1024" />

    
    <glyph glyph-name="ic_chevron_right" unicode="&#59100;" d="M366.933333 580.266667L426.666667 640l256-256-256-256-59.733334 59.733333 196.266667 196.266667z"  horiz-adv-x="1024" />

    
    <glyph glyph-name="ic_extension" unicode="&#59101;" d="M874.666667 426.666667H810.666667V597.333333c0 46.933333-38.4 85.333333-85.333334 85.333334h-170.666666V746.666667C554.666667 806.4 507.733333 853.333333 448 853.333333S341.333333 806.4 341.333333 746.666667V682.666667H170.666667c-46.933333 0-85.333333-38.4-85.333334-85.333334v-162.133333h64c64 0 115.2-51.2 115.2-115.2S213.333333 204.8 149.333333 204.8H85.333333V42.666667c0-46.933333 38.4-85.333333 85.333334-85.333334h162.133333v64c0 64 51.2 115.2 115.2 115.2s115.2-51.2 115.2-115.2V-42.666667H725.333333c46.933333 0 85.333333 38.4 85.333334 85.333334v170.666666h64c59.733333 0 106.666667 46.933333 106.666666 106.666667S934.4 426.666667 874.666667 426.666667z"  horiz-adv-x="1024" />

    
    <glyph glyph-name="ic_labs" unicode="&#59102;" d="M938.666667 512V597.333333h-85.333334V682.666667c0 46.933333-38.4 85.333333-85.333333 85.333333H170.666667c-46.933333 0-85.333333-38.4-85.333334-85.333333v-597.333334c0-46.933333 38.4-85.333333 85.333334-85.333333h597.333333c46.933333 0 85.333333 38.4 85.333333 85.333333v85.333334h85.333334v85.333333h-85.333334v85.333333h85.333334v85.333334h-85.333334V512h85.333334z m-170.666667-426.666667H170.666667V682.666667h597.333333v-597.333334zM256 341.333333h213.333333v-170.666666H256v170.666666z m256 256h170.666667v-128h-170.666667V597.333333zM256 597.333333h213.333333v-213.333333H256V597.333333z m256-170.666666h170.666667v-256h-170.666667v256z"  horiz-adv-x="1024" />

    
    <glyph glyph-name="ic_gaimi" unicode="&#59103;" d="M810.666667 435.2H243.2c-38.4 0-72.533333-29.866667-72.533333-72.533333v-337.066667c0-38.4 29.866667-68.266667 72.533333-68.266667H810.666667c38.4 0 72.533333 29.866667 72.533333 72.533334v337.066666c0 38.4-34.133333 68.266667-72.533333 68.266667z m-196.266667-379.733333c-25.6-17.066667-55.466667-25.6-89.6-25.6-8.533333 0-21.333333 0-29.866667 4.266666-42.666667 8.533333-76.8 29.866667-102.4 68.266667l59.733334 38.4c12.8-21.333333 34.133333-34.133333 55.466666-38.4 21.333333-4.266667 46.933333 0 68.266667 12.8 42.666667 25.6 51.2 85.333333 25.6 123.733333-12.8 21.333333-34.133333 34.133333-55.466667 38.4-21.333333 4.266667-46.933333 0-68.266666-12.8l-12.8-12.8 64-64H366.933333v157.866667L413.866667 298.666667c8.533333 8.533333 17.066667 12.8 21.333333 21.333333 34.133333 21.333333 76.8 29.866667 119.466667 25.6 42.666667-8.533333 76.8-29.866667 102.4-68.266667 51.2-72.533333 29.866667-170.666667-42.666667-221.866666z m-371.2 469.333333v-8.533333 8.533333z m17.066667-17.066667h72.533333c8.533333 0 17.066667 4.266667 17.066667 17.066667 0 102.4 85.333333 183.466667 192 179.2 93.866667-8.533333 166.4-89.6 166.4-183.466667v4.266667c0-8.533333 8.533333-17.066667 17.066666-17.066667h72.533334c4.266667 0 12.8 4.266667 12.8 17.066667 0 162.133333-136.533333 290.133333-298.666667 285.866667-149.333333-8.533333-268.8-136.533333-268.8-285.866667 0-8.533333 8.533333-17.066667 17.066667-17.066667z"  horiz-adv-x="1024" />

    
    <glyph glyph-name="ic_manage_reviews" unicode="&#59104;" d="M853.333333 640h-341.333333l-85.333333 85.333333H170.666667c-46.933333 0-85.333333-38.4-85.333334-85.333333v-512c0-46.933333 38.4-85.333333 85.333334-85.333333h682.666666c46.933333 0 85.333333 38.4 85.333334 85.333333V554.666667c0 46.933333-38.4 85.333333-85.333334 85.333333z m-89.6-469.333333L640 243.2 516.266667 170.666667l34.133333 140.8-110.933333 93.866666 145.066666 12.8L640 554.666667l55.466667-132.266667 145.066666-12.8-110.933333-93.866667 34.133333-145.066666z"  horiz-adv-x="1024" />

    
    <glyph glyph-name="ic_pie_chart" unicode="&#59105;" d="M469.333333 810.666667v-853.333334c-217.6 21.333333-384 204.8-384 426.666667s166.4 405.333333 384 426.666667z m85.333334 0v-384h384c-21.333333 200.533333-179.2 362.666667-384 384z m0-469.333334v-384c200.533333 21.333333 362.666667 179.2 384 384h-384z"  horiz-adv-x="1024" />

    
    <glyph glyph-name="ic_shengchan" unicode="&#59106;" d="M162.133333 405.333333c8.533333-29.866667 21.333333-59.733333 38.4-89.6v-162.133333H426.666667c21.333333-4.266667 42.666667-8.533333 68.266666-8.533333s46.933333 4.266667 68.266667 8.533333h268.8V341.333333h-29.866667c12.8 21.333333 17.066667 46.933333 25.6 68.266667h12.8c34.133333 0 64-29.866667 64-64v-341.333333c0-29.866667-21.333333-51.2-51.2-51.2H179.2C149.333333-42.666667 128-21.333333 128 8.533333v341.333334c0 25.6 12.8 42.666667 34.133333 55.466666z m605.866667 12.8c17.066667-12.8 21.333333-34.133333 8.533333-51.2l-21.333333-34.133333c-8.533333-12.8-21.333333-21.333333-38.4-21.333333-4.266667 0-8.533333 0-17.066667 4.266666l-55.466666 21.333334c-21.333333-21.333333-51.2-38.4-76.8-46.933334l-8.533334-64c-4.266667-21.333333-21.333333-34.133333-42.666666-34.133333h-42.666667c-21.333333 0-38.4 12.8-42.666667 34.133333l-8.533333 64c-25.6 8.533333-51.2 21.333333-76.8 42.666667l-59.733333-21.333333c-4.266667 0-8.533333-4.266667-12.8-4.266667-17.066667 0-29.866667 8.533333-38.4 21.333333l-21.333334 38.4c-8.533333 17.066667-4.266667 42.666667 8.533334 55.466667l46.933333 38.4c-4.266667 12.8-4.266667 29.866667-4.266667 42.666667 0 12.8 0 29.866667 4.266667 42.666666l-38.4 42.666667c-17.066667 12.8-21.333333 34.133333-12.8 55.466667l21.333333 34.133333c8.533333 12.8 21.333333 21.333333 38.4 21.333333 4.266667 0 8.533333 0 12.8-4.266666l55.466667-21.333334c21.333333 21.333333 46.933333 34.133333 76.8 42.666667l8.533333 59.733333c4.266667 21.333333 21.333333 34.133333 42.666667 34.133334h42.666667c21.333333 0 38.4-12.8 42.666666-34.133334l8.533334-59.733333c25.6-8.533333 51.2-21.333333 76.8-42.666667l59.733333 21.333334c4.266667 0 8.533333 4.266667 12.8 4.266666 17.066667 0 29.866667-8.533333 38.4-21.333333l21.333333-38.4c8.533333-17.066667 4.266667-42.666667-8.533333-55.466667l-46.933333-38.4c4.266667-12.8 4.266667-29.866667 4.266666-42.666666 0-12.8 0-29.866667-4.266666-42.666667l46.933333-42.666667z m-268.8-59.733333c76.8 0 140.8 64 140.8 140.8S576 640 499.2 640 358.4 580.266667 358.4 499.2s64-140.8 140.8-140.8z"  horiz-adv-x="1024" />

    
    <glyph glyph-name="ic_shouye" unicode="&#59107;" d="M797.866667 422.4v-384c0-21.333333-17.066667-42.666667-42.666667-42.666667h-123.733333v187.733334c0 12.8-8.533333 21.333333-21.333334 21.333333H409.6c-12.8 0-21.333333-8.533333-21.333333-21.333333V0H268.8c-21.333333 0-42.666667 17.066667-42.666667 42.666667v384l-89.6-93.866667c-12.8-12.8-29.866667-12.8-42.666666 0-12.8 12.8-12.8 29.866667 0 42.666667l396.8 409.6c12.8 12.8 29.866667 12.8 42.666666 0l396.8-409.6c12.8-12.8 12.8-29.866667 0-42.666667l-8.533333-8.533333c-12.8-4.266667-25.6-4.266667-34.133333 8.533333l-89.6 89.6z"  horiz-adv-x="1024" />

    
    <glyph glyph-name="ic_xitong" unicode="&#59108;" d="M913.066667 810.666667H110.933333c-12.8 0-25.6-12.8-25.6-25.6v-89.6c0-12.8 12.8-25.6 25.6-25.6h802.133334c12.8 0 25.6 12.8 25.6 25.6V785.066667c0 12.8-12.8 25.6-25.6 25.6zM413.866667 597.333333H290.133333c-12.8 0-25.6-12.8-25.6-25.6v-51.2c0-12.8 12.8-25.6 25.6-25.6h123.733334c12.8 0 25.6 12.8 25.6 25.6V571.733333c0 12.8-12.8 25.6-25.6 25.6z m247.466666 0h-123.733333c-12.8 0-25.6-12.8-25.6-25.6v-51.2c0-12.8 12.8-25.6 25.6-25.6h123.733333c12.8 0 25.6 12.8 25.6 25.6V571.733333c4.266667 12.8-8.533333 25.6-25.6 25.6z m251.733334 0h-123.733334c-12.8 0-25.6-12.8-25.6-25.6v-51.2c0-12.8 12.8-25.6 25.6-25.6h123.733334c12.8 0 25.6 12.8 25.6 25.6V571.733333c0 12.8-12.8 25.6-25.6 25.6zM413.866667 243.2H290.133333c-12.8 0-25.6-12.8-25.6-25.6v-55.466667c0-12.8 12.8-25.6 25.6-25.6h123.733334c12.8 0 25.6 12.8 25.6 25.6V213.333333c0 17.066667-12.8 29.866667-25.6 29.866667z m247.466666 0h-123.733333c-12.8 0-25.6-12.8-25.6-25.6v-55.466667c0-12.8 12.8-25.6 25.6-25.6h123.733333c12.8 0 25.6 12.8 25.6 25.6V213.333333c4.266667 17.066667-8.533333 29.866667-25.6 29.866667z m251.733334 0h-123.733334c-12.8 0-25.6-12.8-25.6-25.6v-55.466667c0-12.8 12.8-25.6 25.6-25.6h123.733334c12.8 0 25.6 12.8 25.6 25.6V213.333333c0 17.066667-12.8 29.866667-25.6 29.866667z m0-179.2H217.6c-12.8 0-25.6 12.8-25.6 25.6V213.333333c0 12.8-12.8 25.6-25.6 25.6H110.933333c-12.8 4.266667-25.6-8.533333-25.6-25.6v-230.4c0-12.8 12.8-25.6 25.6-25.6h802.133334c12.8 0 25.6 12.8 25.6 25.6v51.2c0 17.066667-12.8 29.866667-25.6 29.866667z m0 354.133333H217.6c-12.8 0-25.6 12.8-25.6 25.6v128c0 12.8-12.8 25.6-25.6 25.6H110.933333c-12.8 0-25.6-12.8-25.6-25.6V341.333333c0-12.8 12.8-25.6 25.6-25.6h802.133334c12.8 0 25.6 12.8 25.6 25.6v51.2c0 12.8-12.8 25.6-25.6 25.6z"  horiz-adv-x="1024" />

    
    <glyph glyph-name="ic_show_reviews" unicode="&#59109;" d="M904.533333 405.333333H725.333333c-21.333333 0-34.133333-17.066667-34.133333-34.133333v-320c0-21.333333 17.066667-34.133333 34.133333-34.133333h179.2c21.333333 0 34.133333 17.066667 34.133334 34.133333v320c0 17.066667-17.066667 34.133333-34.133334 34.133333z m0-320H725.333333v247.466667h179.2V85.333333zM797.866667 725.333333h-640C115.2 725.333333 85.333333 695.466667 85.333333 652.8v-426.666667c0-38.4 29.866667-72.533333 72.533334-72.533333h247.466666V85.333333H332.8v-72.533333h285.866667V85.333333h-72.533334v72.533334h72.533334v72.533333H157.866667v426.666667h640v-179.2h72.533333V652.8c-4.266667 42.666667-34.133333 72.533333-72.533333 72.533333zM512 477.866667l-34.133333 106.666666-34.133334-106.666666H332.8l89.6-64-34.133333-102.4 89.6 64 89.6-64-34.133334 102.4 89.6 64H512z"  horiz-adv-x="1024" />

    
    <glyph glyph-name="ic_tuichu" unicode="&#59110;" d="M85.333333 110.933333V657.066667C85.333333 695.466667 115.2 725.333333 153.6 725.333333h469.333333c38.4 0 68.266667-29.866667 68.266667-68.266666v-128c0-12.8-12.8-25.6-25.6-25.6h-51.2c-12.8 0-25.6 12.8-25.6 25.6V597.333333c0 12.8-12.8 25.6-25.6 25.6H217.6c-17.066667 0-25.6-12.8-25.6-25.6v-426.666666c0-12.8 12.8-25.6 25.6-25.6h349.866667c12.8 0 25.6 12.8 25.6 25.6v68.266666c0 12.8 12.8 25.6 25.6 25.6h51.2c12.8 0 25.6-12.8 25.6-25.6v-128c0-38.4-29.866667-68.266667-68.266667-68.266666h-469.333333c-42.666667 0-72.533333 29.866667-72.533334 68.266666z m341.333334 221.866667c-12.8 0-29.866667 12.8-29.866667 25.6v51.2c0 12.8 12.8 25.6 29.866667 25.6h337.066666V533.333333c0 17.066667 12.8 25.6 25.6 17.066667l145.066667-153.6c4.266667-8.533333 4.266667-17.066667 0-25.6l-145.066667-153.6c-8.533333-8.533333-25.6 0-25.6 17.066667v102.4H426.666667z"  horiz-adv-x="1024" />

    
    <glyph glyph-name="ic_zhineng" unicode="&#59111;" d="M938.666667 695.466667c0 38.4-34.133333 72.533333-72.533334 72.533333H157.866667C119.466667 768 85.333333 733.866667 85.333333 695.466667v-465.066667c0-38.4 34.133333-72.533333 72.533334-72.533333h712.533333c38.4 0 72.533333 34.133333 72.533333 72.533333V695.466667zM388.266667 247.466667c0-8.533333-8.533333-17.066667-17.066667-17.066667H209.066667c-8.533333 0-17.066667 8.533333-17.066667 17.066667v72.533333c0 8.533333 8.533333 17.066667 17.066667 17.066667h162.133333c8.533333 0 17.066667-8.533333 17.066667-17.066667v-72.533333z m0 174.933333c0-8.533333-8.533333-17.066667-17.066667-17.066667H209.066667c-8.533333 0-17.066667 8.533333-17.066667 17.066667V494.933333c0 8.533333 8.533333 17.066667 17.066667 17.066667h162.133333c8.533333 0 17.066667-8.533333 17.066667-17.066667v-72.533333z m0 179.2c0-8.533333-8.533333-17.066667-17.066667-17.066667H209.066667c-8.533333 0-17.066667 8.533333-17.066667 17.066667V674.133333c0 8.533333 8.533333 17.066667 17.066667 17.066667h162.133333c8.533333 0 17.066667-8.533333 17.066667-17.066667v-72.533333zM832 256c0-8.533333-8.533333-17.066667-17.066667-17.066667h-337.066666c-8.533333 0-17.066667 8.533333-17.066667 17.066667V674.133333c0 8.533333 8.533333 17.066667 17.066667 17.066667h337.066666c8.533333 0 17.066667-8.533333 17.066667-17.066667V256z m-153.6-196.266667c38.4 0 72.533333-34.133333 72.533333-72.533333v-8.533333c0-12.8-12.8-25.6-25.6-25.6H298.666667c-12.8 0-25.6 12.8-25.6 25.6v8.533333c0 38.4 34.133333 72.533333 72.533333 72.533333h93.866667c8.533333 0 17.066667 8.533333 17.066666 17.066667v34.133333c0 8.533333 8.533333 17.066667 17.066667 17.066667h72.533333c8.533333 0 17.066667-8.533333 17.066667-17.066667v-34.133333c0-8.533333 8.533333-17.066667 17.066667-17.066667h98.133333z"  horiz-adv-x="1024" />

    
    <glyph glyph-name="ic_zhiliang" unicode="&#59112;" d="M366.933333 640h307.2c17.066667 0 29.866667 12.8 29.866667 29.866667V725.333333c0 46.933333-38.4 85.333333-85.333333 85.333334H422.4C375.466667 810.666667 341.333333 772.266667 341.333333 725.333333v-55.466666c-4.266667-17.066667 8.533333-29.866667 25.6-29.866667z m460.8 98.133333h-29.866666c-8.533333 0-12.8-4.266667-12.8-12.8v-55.466666c0-64-51.2-115.2-110.933334-115.2H366.933333C302.933333 554.666667 256 605.866667 256 669.866667V725.333333c0 8.533333-4.266667 12.8-12.8 12.8H213.333333c-46.933333 0-85.333333-38.4-85.333333-85.333333V42.666667c0-46.933333 38.4-85.333333 85.333333-85.333334h614.4c46.933333 0 85.333333 38.4 85.333334 85.333334V652.8c-4.266667 46.933333-38.4 85.333333-85.333334 85.333333zM366.933333 128c0-17.066667-12.8-29.866667-29.866666-29.866667h-29.866667c-17.066667 0-29.866667 12.8-29.866667 29.866667v29.866667c0 17.066667 12.8 29.866667 29.866667 29.866666h29.866667c17.066667 0 29.866667-12.8 29.866666-29.866666v-29.866667z m0 140.8c0-17.066667-12.8-29.866667-29.866666-29.866667h-29.866667c-17.066667 0-29.866667 12.8-29.866667 29.866667V298.666667c0 17.066667 12.8 29.866667 29.866667 29.866666h29.866667c17.066667 0 29.866667-12.8 29.866666-29.866666v-29.866667z m0 145.066667c0-17.066667-12.8-29.866667-29.866666-29.866667h-29.866667c-17.066667 0-29.866667 12.8-29.866667 29.866667v29.866666c0 17.066667 12.8 29.866667 29.866667 29.866667h29.866667c17.066667 0 29.866667-12.8 29.866666-29.866667v-29.866666z m392.533334-285.866667c0-17.066667-12.8-29.866667-29.866667-29.866667h-277.333333c-17.066667 0-29.866667 12.8-29.866667 29.866667v29.866667c0 17.066667 12.8 29.866667 29.866667 29.866666h277.333333c17.066667 0 29.866667-12.8 29.866667-29.866666v-29.866667z m0 140.8c0-17.066667-12.8-29.866667-29.866667-29.866667h-277.333333c-17.066667 0-29.866667 12.8-29.866667 29.866667V298.666667c0 17.066667 12.8 29.866667 29.866667 29.866666h277.333333c17.066667 0 29.866667-12.8 29.866667-29.866666v-29.866667z m0 145.066667c0-17.066667-12.8-29.866667-29.866667-29.866667h-277.333333c-17.066667 0-29.866667 12.8-29.866667 29.866667v29.866666c0 17.066667 12.8 29.866667 29.866667 29.866667h277.333333c17.066667 0 29.866667-12.8 29.866667-29.866667v-29.866666z"  horiz-adv-x="1024" />

    
    <glyph glyph-name="ic_dashboard" unicode="&#59113;" d="M128 384h341.333333V768H128v-384z m0-384h341.333333v256H128v-256z m469.333333 0h298.666667v384h-298.666667v-384z m0 768v-256h298.666667V768h-298.666667z"  horiz-adv-x="1024" />

    


  </font>
</defs>
</svg>
