<?xml version="1.0" encoding="utf-8"?>
<!-- Generator: Adobe Illustrator 23.0.0, SVG Export Plug-In . SVG Version: 6.00 Build 0)  -->
<svg version="1.1" id="图层_1" xmlns="http://www.w3.org/2000/svg" xmlns:xlink="http://www.w3.org/1999/xlink" x="0px" y="0px"
	 viewBox="0 0 16 16" style="enable-background:new 0 0 16 16;" xml:space="preserve">
<style>
  .sto{fill:#909399}
</style>
<g class="sto">
	<path d="M9.1,7.9c-0.2,0-0.4,0.2-0.4,0.4c0,0.2,0.2,0.4,0.4,0.4s0.4-0.2,0.4-0.4C9.5,8.1,9.3,7.9,9.1,7.9z"/>
	<circle cx="7.8" cy="5.7" r="0.6"/>
	<circle cx="5.2" cy="5.7" r="0.6"/>
	<path d="M8,1C4.1,1,1,4.1,1,8s3.1,7,7,7s7-3.1,7-7S11.9,1,8,1z M6.5,10C6,10,5.6,9.9,5.2,9.8l-1.3,0.6l0.4-1.1
		C3.3,8.7,2.8,7.8,2.8,6.8c0-1.8,1.7-3.2,3.7-3.2c1.8,0,3.4,1.1,3.8,2.6c-0.1,0-0.2,0-0.4,0c-1.8,0-3.2,1.3-3.2,3
		c0,0.3,0,0.5,0.1,0.8C6.7,10,6.6,10,6.5,10z M11.9,11.3l0.3,0.9l-1-0.6c-0.4,0.1-0.7,0.2-1.1,0.2c-1.8,0-3.2-1.2-3.2-2.7
		s1.4-2.7,3.2-2.7c1.7,0,3.2,1.2,3.2,2.7C13.2,10,12.7,10.7,11.9,11.3z"/>
	<path d="M11.2,7.9c-0.2,0-0.4,0.2-0.4,0.4s0.2,0.4,0.4,0.4s0.4-0.2,0.4-0.4S11.4,7.9,11.2,7.9z"/>
</g>
</svg>
